# xmcd CD database file
#
# Track frame offsets:
#	150
#	18650
#	43325
#	65070
#	86010
#	100325
#	115142
#	133175
#	152615
#	172542
#	188857
#	205497
#	223700
#	240167
#	253987
#
# Disc length: 3619 seconds
#
# Revision: 0
# Processed by: cddbd v1.5.1PL2 Copyright (c) Steve Scherf et al.
# Submitted via: CDex 1.51
#
DISCID=d70e210f
DTITLE=Fariborz Lachini - Golden Autumn 1
DYEAR=1900
DGENRE=New Age
TTITLE0=Autumn, Autumn, Autumn
TTITLE1=Autumn Lightness
TTITLE2=Autumn Was Lost In The Leaves
TTITLE3=In Autumn, The Leaves Came To Our House
TTITLE4=Twas The Uprising Of The Leaves, Twas Autumn
TTITLE5=Perplexed, I Reached The Edge Of Autumn
TTITLE6=Faces Lost In The Autumn Leaves
TTITLE7=In My Little Autumn, the Trees Had Only One Leaf
TTITLE8=In A Corner Of The Sky, Were The Leaves Of Autumn
TTITLE9=Confused, The Leaves Went To The Sea
TTITLE10=Twas The Morning Of The Leaves, Twas Autumn
TTITLE11=You Were A Guest In Our House In Autumn
TTITLE12=The Autumn Leaves Went Towards Winter
TTITLE13=The End Of Autumn
TTITLE14=Me Without The Autumn
EXTD=
EXTT0=
EXTT1=
EXTT2=
EXTT3=
EXTT4=
EXTT5=
EXTT6=
EXTT7=
EXTT8=
EXTT9=
EXTT10=
EXTT11=
EXTT12=
EXTT13=
EXTT14=
PLAYORDER=
